<svg width="764" height="941" viewBox="0 0 764 941" fill="none" xmlns="http://www.w3.org/2000/svg">
<g opacity="0.899439">
<path d="M381.734 12.7012C390.933 40.7676 463.194 73.7316 510.937 91.4067C543.262 103.375 574.118 116.846 574.118 116.846C574.118 116.846 620.755 135.675 661.56 171.514C694.355 200.316 718.95 255.587 715.852 315.645C713.358 364.006 710.601 380.743 703.283 402.456C698.797 415.765 691.999 427.619 679.235 443.628C643.638 488.269 731.388 421.279 749.997 498.628C751.66 505.534 750.141 544.066 749.99 549.757L749.419 574.929C749.419 574.929 746.945 611.241 740.87 638.889C736.918 656.869 726.223 687.811 719.21 703.354C710.299 723.102 700.772 740.645 681.188 768.19C661.659 795.66 629.424 834.233 603.578 852.148C551.813 888.027 499.467 922.37 381.734 927.445" fill="#FBFAF8"/>
<path d="M381.734 12.7012C390.933 40.7676 463.194 73.7316 510.937 91.4067C543.262 103.375 574.118 116.846 574.118 116.846C574.118 116.846 620.755 135.675 661.56 171.514C694.355 200.316 718.95 255.587 715.852 315.645C713.358 364.006 710.601 380.743 703.283 402.456C698.797 415.765 691.999 427.619 679.235 443.628C643.638 488.269 731.388 421.279 749.997 498.628C751.66 505.534 750.141 544.066 749.99 549.757L749.419 574.929C749.419 574.929 746.945 611.241 740.87 638.889C736.918 656.869 726.223 687.811 719.21 703.354C710.299 723.102 700.772 740.645 681.188 768.19C661.659 795.66 629.424 834.233 603.578 852.148C551.813 888.027 499.467 922.369 381.734 927.445" stroke="#37786D" stroke-width="15" stroke-miterlimit="10" stroke-linecap="round"/>
<path d="M381.734 12.7012C372.537 40.7676 300.275 73.7316 252.532 91.4067C220.208 103.375 189.352 116.846 189.352 116.846C189.352 116.846 142.715 135.675 101.908 171.514C69.1152 200.316 44.5205 255.587 47.6179 315.645C50.1107 364.006 52.8678 380.743 60.1871 402.456C64.6715 415.765 71.4709 427.619 84.2348 443.628C119.832 488.269 32.0817 421.279 13.4718 498.628C11.8105 505.534 13.3296 544.066 13.4803 549.757L14.0493 574.929C14.0493 574.929 16.5235 611.241 22.5998 638.889C26.5507 656.869 37.2469 687.811 44.2597 703.354C53.1692 723.102 62.6986 740.645 82.2805 768.19C101.812 795.66 134.046 834.233 159.892 852.148C211.656 888.027 264.004 922.37 381.734 927.445" fill="#FBFAF8"/>
<path d="M381.734 12.7012C372.537 40.7676 300.275 73.7316 252.532 91.4067C220.208 103.375 189.352 116.846 189.352 116.846C189.352 116.846 142.715 135.675 101.908 171.514C69.1152 200.316 44.5205 255.587 47.6179 315.645C50.1107 364.006 52.8678 380.743 60.1871 402.456C64.6715 415.765 71.4709 427.619 84.2348 443.628C119.832 488.269 32.0817 421.279 13.4718 498.628C11.8105 505.534 13.3296 544.066 13.4803 549.757L14.0493 574.929C14.0493 574.929 16.5235 611.241 22.5998 638.889C26.5507 656.869 37.2469 687.811 44.2597 703.354C53.1692 723.102 62.6986 740.645 82.2805 768.19C101.812 795.66 134.046 834.233 159.892 852.148C211.656 888.027 264.004 922.369 381.734 927.445" stroke="#37786D" stroke-width="15" stroke-miterlimit="10" stroke-linecap="round"/>
<path d="M294.188 735.771C294.188 735.771 316.06 784.892 356.196 821.121C396.194 857.225 448.81 873.405 496.443 869.686C515.166 868.224 519.332 868.169 531.939 866.739C587.198 860.468 617.237 840.84 617.237 840.84" stroke="#3A786D" stroke-width="15" stroke-miterlimit="10" stroke-linecap="round" stroke-linejoin="round"/>
<path d="M299.327 687.071C299.327 687.071 299.735 654.061 307.953 618.884C315.285 587.505 329.449 555.21 345.366 530.351C379.128 477.624 446.665 424.883 468.653 409.665C488.875 395.672 496.786 391.797 515.294 382.218C537.066 370.948 559.83 361.483 571.66 356.767C582.533 352.43 587.761 350.462 601.046 345.629C618.161 339.402 633.141 334.978 632.85 337.019C632.388 340.252 623.79 407.538 608.804 451.388C593.818 495.236 580.104 536.302 545.936 584.943C511.77 633.583 503.736 642.339 470.36 665.807C451.024 679.405 428.219 690.59 412.453 697.594C401.005 702.682 388.835 705.559 388.835 705.559C388.835 705.559 322.59 721.442 315 715.52C307.408 709.596 350.591 651.304 354.699 645.758C358.808 640.212 384.076 610.132 390.137 603.71C396.2 597.287 429.904 567.545 439.571 560.14C449.237 552.734 448.611 547.057 447.462 544.492C446.314 541.926 442.871 538.766 434.781 540.998C426.69 543.232 409.682 555.401 400.822 563.706C386.91 576.749 381.734 580.36 350.242 616.642C322.48 648.627 299.327 687.071 299.327 687.071Z" fill="#3A786D" stroke="#3A786D" stroke-miterlimit="10" stroke-linejoin="round"/>
<path d="M272.248 659.586C272.248 659.586 272.224 702.238 272.668 707.781C272.949 711.295 248.019 702.286 227.891 684.585C213.81 672.202 203.947 660.898 199.544 655.79C191.754 646.752 172.871 615.092 167.616 601.624C165.127 595.246 160.226 583.59 155.249 565.901C149.714 546.238 147.147 520.541 148.481 517.303C151.015 511.155 213.085 541.516 220.545 546.998C228.005 552.478 259.128 574.433 267.255 582.743C275.381 591.051 283.647 598.83 285.721 602.042C287.796 605.255 277.948 635.49 277.948 635.49C277.948 635.49 258.937 621.399 256.288 620.049C253.641 618.699 244.242 612.017 239.055 619.312C233.87 626.61 239.511 632.041 243.067 636.486C246.623 640.933 272.248 659.586 272.248 659.586Z" fill="#3A786D" stroke="#3A786D" stroke-miterlimit="10" stroke-linejoin="round"/>
</g>
</svg>
