<svg width="2153" height="941" viewBox="0 0 2153 941" fill="none" xmlns="http://www.w3.org/2000/svg">
<path d="M1003.22 316.43C971.436 312.13 957.227 299.977 957.227 275.858V273.988C957.227 248.186 975.55 231.733 1007.15 231.733C1041.74 231.733 1056.88 247.999 1056.88 280.906V285.206H1031.83C1031.83 263.331 1024.72 253.609 1007.33 253.609H1005.65C991.816 253.609 982.842 261.274 982.842 272.679V273.801C982.842 285.767 988.264 292.498 1011.26 295.677C1043.05 299.977 1058.19 311.382 1058.19 336.997V339.054C1058.19 366.351 1039.68 382.431 1007.15 382.431C973.68 382.431 955.918 366.164 955.918 332.697V330.827H980.972C980.972 351.581 990.507 360.555 1006.21 360.555H1007.9C1023.6 360.555 1032.58 352.142 1032.58 339.989V338.867C1032.58 326.153 1025.47 319.422 1003.22 316.43Z" fill="#295368"/>
<path d="M1137.95 380L1136.08 368.595C1129.16 376.635 1118.51 382.431 1103.74 382.431C1082.79 382.431 1073.82 369.156 1073.82 353.263V351.394C1073.82 329.892 1089.15 323.161 1108.41 320.357L1133.65 316.43V316.056C1133.65 303.529 1129.72 297.359 1117.2 297.359C1103.74 297.359 1100.74 305.025 1100.74 313.626H1077.56V311.943C1077.56 295.303 1086.16 278.476 1117.76 278.476C1148.61 278.476 1157.96 292.872 1157.96 316.056V351.955L1159.45 380H1137.95ZM1112.15 362.425C1123.55 362.425 1130.47 356.442 1133.65 352.142V331.201L1112.9 334.566C1102.61 336.249 1098.13 341.11 1098.13 348.776V350.272C1098.13 356.442 1102.24 362.425 1112.15 362.425Z" fill="#295368"/>
<path d="M1181.62 380V230.424H1205.93V380H1181.62Z" fill="#295368"/>
<path d="M1367.75 380H1343.45V314.374C1343.45 304.277 1338.59 299.603 1329.42 299.603C1319.33 299.603 1314.09 305.773 1311.1 310.26V380H1286.98V314.374C1286.98 304.277 1281.93 299.603 1272.77 299.603C1262.68 299.603 1257.44 305.773 1254.64 310.26V380H1230.33V308.952L1228.65 280.906H1250.15L1252.21 293.246C1258.19 284.832 1267.72 278.476 1282.31 278.476C1295.4 278.476 1303.81 284.646 1307.92 294.181C1313.72 285.206 1323.63 278.476 1338.77 278.476C1358.59 278.476 1367.75 291.937 1367.75 310.634V380Z" fill="#295368"/>
<path d="M1450.07 380L1448.2 368.595C1441.28 376.635 1430.62 382.431 1415.85 382.431C1394.91 382.431 1385.94 369.156 1385.94 353.263V351.394C1385.94 329.892 1401.27 323.161 1420.52 320.357L1445.77 316.43V316.056C1445.77 303.529 1441.84 297.359 1429.31 297.359C1415.85 297.359 1412.86 305.025 1412.86 313.626H1389.67V311.943C1389.67 295.303 1398.28 278.476 1429.87 278.476C1460.72 278.476 1470.07 292.872 1470.07 316.056V351.955L1471.57 380H1450.07ZM1424.26 362.425C1435.67 362.425 1442.59 356.442 1445.77 352.142V331.201L1425.01 334.566C1414.73 336.249 1410.24 341.11 1410.24 348.776V350.272C1410.24 356.442 1414.35 362.425 1424.26 362.425Z" fill="#295368"/>
<path d="M1578.06 380H1553.94V316.056C1553.94 306.521 1549.27 299.603 1538.24 299.603C1526.83 299.603 1520.48 306.334 1517.67 311.008V380H1493.37V308.952L1491.68 280.906H1513.18L1515.43 293.994C1521.6 285.019 1531.88 278.476 1547.59 278.476C1569.27 278.476 1578.06 294.181 1578.06 312.13V380Z" fill="#295368"/>
<path d="M1003.22 521.43C971.436 517.13 957.227 504.977 957.227 480.858V478.988C957.227 453.186 975.55 436.733 1007.15 436.733C1041.74 436.733 1056.88 452.999 1056.88 485.906V490.206H1031.83C1031.83 468.331 1024.72 458.609 1007.33 458.609H1005.65C991.816 458.609 982.842 466.274 982.842 477.679V478.801C982.842 490.767 988.264 497.498 1011.26 500.677C1043.05 504.977 1058.19 516.382 1058.19 541.997V544.054C1058.19 571.351 1039.68 587.431 1007.15 587.431C973.68 587.431 955.918 571.164 955.918 537.697V535.827H980.972C980.972 556.581 990.507 565.555 1006.21 565.555H1007.9C1023.6 565.555 1032.58 557.142 1032.58 544.989V543.867C1032.58 531.153 1025.47 524.422 1003.22 521.43Z" fill="#295368"/>
<path d="M1077.19 485.906H1101.3V549.85C1101.3 559.385 1105.98 566.116 1117.2 566.116C1128.42 566.116 1134.77 559.572 1137.76 554.898V485.906H1162.07V556.955L1163.57 585H1142.06L1139.82 571.912C1133.65 580.887 1123.37 587.431 1107.66 587.431C1085.97 587.431 1077.19 571.725 1077.19 553.589V485.906Z" fill="#295368"/>
<path d="M1224.33 568.547C1235.92 568.547 1241.34 563.499 1241.34 556.207C1241.34 547.606 1236.48 544.615 1222.46 543.493C1194.97 541.249 1184.31 533.583 1184.31 516.195V514.699C1184.31 493.572 1200.95 483.476 1224.33 483.476C1252.75 483.476 1264.52 496.75 1264.52 517.317V518.252H1240.78C1240.78 508.342 1236.29 502.359 1224.33 502.359C1214.04 502.359 1208.25 506.847 1208.25 514.139C1208.25 521.43 1211.8 524.983 1226.38 526.105C1251.25 528.161 1265.65 533.957 1265.65 553.963V555.272C1265.65 574.904 1251.62 587.431 1224.33 587.431C1195.72 587.431 1183.01 572.66 1183.01 554.711V553.963H1207.12C1207.12 562.003 1211.24 568.547 1224.33 568.547Z" fill="#295368"/>
<path d="M1317.46 485.906H1344.95V507.221H1317.46V550.037C1317.46 563.312 1323.45 566.116 1333.54 566.116C1337.1 566.116 1341.96 565.368 1343.08 564.807V585C1341.58 585.748 1336.54 587.431 1327.75 587.431C1307.37 587.431 1293.16 578.269 1293.16 552.654V507.221H1278.01V485.906H1293.16V457.861H1317.46V485.906Z" fill="#295368"/>
<path d="M1425.23 585L1423.36 573.595C1416.45 581.635 1405.79 587.431 1391.02 587.431C1370.08 587.431 1361.1 574.156 1361.1 558.263V556.394C1361.1 534.892 1376.43 528.161 1395.69 525.357L1420.93 521.43V521.056C1420.93 508.529 1417.01 502.359 1404.48 502.359C1391.02 502.359 1388.03 510.025 1388.03 518.626H1364.84V516.943C1364.84 500.303 1373.44 483.476 1405.04 483.476C1435.89 483.476 1445.24 497.872 1445.24 521.056V556.955L1446.74 585H1425.23ZM1399.43 567.425C1410.84 567.425 1417.76 561.442 1420.93 557.142V536.201L1400.18 539.566C1389.9 541.249 1385.41 546.11 1385.41 553.776V555.272C1385.41 561.442 1389.52 567.425 1399.43 567.425Z" fill="#295368"/>
<path d="M1468.91 585V485.906H1493.21V585H1468.91ZM1494.34 442.342V468.705H1467.79V442.342H1494.34Z" fill="#295368"/>
<path d="M1602.31 585H1578.19V521.056C1578.19 511.521 1573.52 504.603 1562.49 504.603C1551.08 504.603 1544.72 511.334 1541.92 516.008V585H1517.61V513.952L1515.93 485.906H1537.43L1539.68 498.994C1545.85 490.019 1556.13 483.476 1571.83 483.476C1593.52 483.476 1602.31 499.181 1602.31 517.13V585Z" fill="#295368"/>
<path d="M1684.95 585L1683.08 573.595C1676.16 581.635 1665.5 587.431 1650.73 587.431C1629.79 587.431 1620.82 574.156 1620.82 558.263V556.394C1620.82 534.892 1636.15 528.161 1655.41 525.357L1680.65 521.43V521.056C1680.65 508.529 1676.72 502.359 1664.19 502.359C1650.73 502.359 1647.74 510.025 1647.74 518.626H1624.56V516.943C1624.56 500.303 1633.16 483.476 1664.75 483.476C1695.6 483.476 1704.95 497.872 1704.95 521.056V556.955L1706.45 585H1684.95ZM1659.14 567.425C1670.55 567.425 1677.47 561.442 1680.65 557.142V536.201L1659.89 539.566C1649.61 541.249 1645.12 546.11 1645.12 553.776V555.272C1645.12 561.442 1649.24 567.425 1659.14 567.425Z" fill="#295368"/>
<path d="M1752.37 435.424V495.068C1757.97 488.337 1766.39 483.476 1778.73 483.476C1805.84 483.476 1815.75 504.042 1815.75 532.462V538.445C1815.75 566.677 1805.84 587.431 1778.73 587.431C1764.52 587.431 1755.54 581.074 1750.12 572.66L1748.06 585H1726.56L1728.06 556.955V435.424H1752.37ZM1752.37 516.008V554.898C1755.36 559.572 1761.53 566.116 1771.81 566.116C1785.65 566.116 1791.44 555.833 1791.44 538.445V532.462C1791.44 515.073 1785.65 504.603 1771.81 504.603C1761.53 504.603 1755.36 511.334 1752.37 516.008Z" fill="#295368"/>
<path d="M1836.31 585V485.906H1860.62V585H1836.31ZM1861.74 442.342V468.705H1835.19V442.342H1861.74Z" fill="#295368"/>
<path d="M1885.39 585V435.424H1909.7V585H1885.39Z" fill="#295368"/>
<path d="M1934.47 585V485.906H1958.78V585H1934.47ZM1959.9 442.342V468.705H1933.35V442.342H1959.9Z" fill="#295368"/>
<path d="M2016.08 485.906H2043.57V507.221H2016.08V550.037C2016.08 563.312 2022.06 566.116 2032.16 566.116C2035.71 566.116 2040.57 565.368 2041.7 564.807V585C2040.2 585.748 2035.15 587.431 2026.36 587.431C2005.99 587.431 1991.78 578.269 1991.78 552.654V507.221H1976.63V485.906H1991.78V457.861H2016.08V485.906Z" fill="#295368"/>
<path d="M2103.47 554.711L2125.35 485.906H2151.52L2116.56 580.139L2103.47 622.394H2074.68L2090.38 580.139L2055.42 485.906H2081.78L2103.47 554.711Z" fill="#295368"/>
<path d="M985.459 736.592V791H960.405V645.164H1006.03C1028.84 645.164 1054.82 651.895 1054.82 688.915V692.654C1054.82 716.025 1044.35 727.43 1031.08 732.666L1054.82 791H1027.71L1006.77 736.592H985.459ZM985.459 714.716H1006.96C1016.68 714.716 1029.4 711.164 1029.4 691.906V689.849C1029.4 670.592 1016.68 667.039 1006.96 667.039H985.459V714.716Z" fill="#295368"/>
<path d="M1162.11 750.428H1096.67C1097.61 766.694 1105.09 774.547 1118.92 774.547C1132.2 774.547 1139.12 766.694 1139.12 759.215H1162.11V759.963C1162.11 777.725 1147.16 793.431 1118.74 793.431C1086.76 793.431 1072.37 772.116 1072.37 743.884V739.022C1072.37 710.79 1087.14 689.476 1117.8 689.476C1148.28 689.476 1162.11 710.79 1162.11 739.022V750.428ZM1117.24 708.359C1104.15 708.359 1097.61 716.773 1096.67 732.479H1137.62C1136.87 716.773 1130.52 708.359 1117.24 708.359Z" fill="#295368"/>
<path d="M1232.64 793.431C1220.3 793.431 1211.89 788.756 1206.28 781.839V828.394H1181.98V719.952L1180.48 691.906H1201.98L1204.04 704.246C1209.46 695.832 1218.44 689.476 1232.64 689.476C1259.76 689.476 1269.66 710.042 1269.66 738.462V744.445C1269.66 772.677 1259.76 793.431 1232.64 793.431ZM1206.28 722.008V760.898C1209.27 765.572 1215.44 772.116 1225.73 772.116C1239.56 772.116 1245.36 761.833 1245.36 744.445V738.462C1245.36 721.073 1239.56 710.603 1225.73 710.603C1215.44 710.603 1209.27 717.334 1206.28 722.008Z" fill="#295368"/>
<path d="M1330.61 793.431C1299.58 793.431 1285.74 772.677 1285.74 744.445V738.462C1285.74 710.042 1299.58 689.476 1330.61 689.476C1361.65 689.476 1375.49 710.042 1375.49 738.462V744.445C1375.49 772.677 1361.65 793.431 1330.61 793.431ZM1330.61 772.116C1344.82 772.116 1351.18 761.459 1351.18 744.445V738.462C1351.18 721.26 1344.82 710.603 1330.61 710.603C1316.4 710.603 1310.05 721.26 1310.05 738.462V744.445C1310.05 761.459 1316.4 772.116 1330.61 772.116Z" fill="#295368"/>
<path d="M1444.15 689.476C1445.27 689.476 1446.39 689.662 1446.95 689.662V713.221H1442.84C1429.75 713.221 1422.83 719.204 1419.84 723.691V791H1395.53V719.952L1393.85 691.906H1415.35L1417.41 703.872C1423.02 695.646 1431.99 689.476 1444.15 689.476Z" fill="#295368"/>
<path d="M1499.61 691.906H1527.1V713.221H1499.61V756.037C1499.61 769.312 1505.6 772.116 1515.69 772.116C1519.25 772.116 1524.11 771.368 1525.23 770.807V791C1523.73 791.748 1518.69 793.431 1509.9 793.431C1489.52 793.431 1475.31 784.269 1475.31 758.654V713.221H1460.16V691.906H1475.31V663.861H1499.61V691.906Z" fill="#295368"/>
<g clip-path="url(#clip0_2310_712)">
<g opacity="0.899439">
<path d="M381.735 12.7014C390.934 40.7679 463.195 73.732 510.938 91.4071C543.264 103.375 574.119 116.847 574.119 116.847C574.119 116.847 620.757 135.675 661.562 171.515C694.357 200.316 718.951 255.587 715.854 315.646C713.359 364.007 710.602 380.744 703.285 402.457C698.799 415.766 692.001 427.621 679.237 443.629C643.639 488.27 731.39 421.28 749.998 498.629C751.661 505.535 750.142 544.068 749.992 549.758L749.421 574.93C749.421 574.93 746.947 611.242 740.872 638.891C736.92 656.87 726.225 687.812 719.212 703.356C710.301 723.104 700.773 740.647 681.19 768.191C661.66 795.662 629.426 834.235 603.58 852.15C551.814 888.029 499.468 922.372 381.735 927.447" fill="#FBFAF8"/>
<path d="M381.735 12.7014C390.934 40.7679 463.195 73.732 510.938 91.4071C543.264 103.375 574.119 116.847 574.119 116.847C574.119 116.847 620.757 135.675 661.562 171.515C694.357 200.317 718.951 255.587 715.854 315.646C713.359 364.007 710.602 380.744 703.285 402.457C698.799 415.766 692.001 427.621 679.237 443.629C643.639 488.27 731.39 421.28 749.998 498.629C751.661 505.535 750.142 544.068 749.992 549.758L749.421 574.93C749.421 574.93 746.947 611.242 740.872 638.891C736.92 656.87 726.225 687.813 719.212 703.356C710.301 723.103 700.773 740.647 681.19 768.191C661.66 795.662 629.426 834.235 603.58 852.15C551.814 888.029 499.468 922.372 381.735 927.447" stroke="#37786D" stroke-width="25.4026" stroke-miterlimit="10" stroke-linecap="round"/>
<path d="M381.735 12.7014C372.538 40.7679 300.276 73.732 252.532 91.4071C220.208 103.375 189.353 116.847 189.353 116.847C189.353 116.847 142.715 135.675 101.909 171.515C69.1155 200.316 44.5207 255.587 47.6181 315.646C50.111 364.007 52.868 380.744 60.1873 402.457C64.6717 415.766 71.4712 427.621 84.2351 443.629C119.833 488.27 32.0819 421.28 13.472 498.629C11.8106 505.535 13.3297 544.068 13.4804 549.758L14.0494 574.93C14.0494 574.93 16.5236 611.242 22.5999 638.891C26.5509 656.87 37.2471 687.812 44.2599 703.356C53.1694 723.104 62.6988 740.647 82.2808 768.191C101.812 795.662 134.046 834.235 159.893 852.15C211.656 888.029 264.004 922.372 381.735 927.447" fill="#FBFAF8"/>
<path d="M381.735 12.7014C372.538 40.7679 300.276 73.732 252.532 91.4071C220.208 103.375 189.353 116.847 189.353 116.847C189.353 116.847 142.715 135.675 101.909 171.515C69.1155 200.317 44.5207 255.587 47.6181 315.646C50.111 364.007 52.868 380.744 60.1873 402.457C64.6717 415.766 71.4712 427.621 84.2351 443.629C119.833 488.27 32.0819 421.28 13.472 498.629C11.8106 505.535 13.3297 544.068 13.4804 549.758L14.0494 574.93C14.0494 574.93 16.5236 611.242 22.5999 638.891C26.5509 656.87 37.2471 687.813 44.2599 703.356C53.1694 723.103 62.6988 740.647 82.2808 768.191C101.812 795.662 134.046 834.235 159.893 852.15C211.656 888.029 264.004 922.372 381.735 927.447" stroke="#37786D" stroke-width="25.4026" stroke-miterlimit="10" stroke-linecap="round"/>
<path d="M294.189 735.773C294.189 735.773 316.061 784.895 356.197 821.124C396.196 857.228 448.811 873.407 496.444 869.688C515.168 868.227 519.334 868.171 531.94 866.742C587.199 860.471 617.239 840.843 617.239 840.843" stroke="#3A786D" stroke-width="25.4026" stroke-miterlimit="10" stroke-linecap="round" stroke-linejoin="round"/>
<path d="M299.327 687.072C299.327 687.072 299.736 654.062 307.954 618.885C315.285 587.506 329.45 555.211 345.367 530.352C379.129 477.624 446.666 424.884 468.654 409.666C488.876 395.672 496.787 391.798 515.295 382.219C537.067 370.949 559.831 361.484 571.662 356.767C582.534 352.43 587.762 350.462 601.048 345.629C618.162 339.402 633.143 334.979 632.852 337.019C632.389 340.252 623.791 407.539 608.806 451.389C593.82 495.237 580.106 536.303 545.937 584.944C511.771 633.585 503.737 642.34 470.361 665.809C451.025 679.406 428.22 690.591 412.454 697.596C401.005 702.683 388.836 705.56 388.836 705.56C388.836 705.56 322.591 721.444 315.001 715.521C307.409 709.598 350.592 651.305 354.7 645.759C358.808 640.213 384.077 610.133 390.138 603.711C396.201 597.288 429.905 567.546 439.572 560.14C449.238 552.735 448.612 547.058 447.463 544.493C446.315 541.927 442.872 538.767 434.782 540.999C426.691 543.233 409.683 555.402 400.823 563.707C386.91 576.75 381.735 580.361 350.243 616.643C322.481 648.628 299.327 687.072 299.327 687.072Z" fill="#3A786D" stroke="#3A786D" stroke-width="1.69351" stroke-miterlimit="10" stroke-linejoin="round"/>
<path d="M272.248 659.587C272.248 659.587 272.224 702.239 272.668 707.782C272.949 711.296 248.019 702.287 227.891 684.586C213.81 672.203 203.947 660.899 199.544 655.791C191.754 646.753 172.871 615.093 167.616 601.625C165.127 595.247 160.226 583.591 155.248 565.902C149.714 546.239 147.147 520.541 148.481 517.303C151.015 511.156 213.085 541.517 220.545 546.999C228.005 552.479 259.128 574.434 267.255 582.744C275.381 591.052 283.647 598.83 285.721 602.043C287.796 605.256 277.948 635.491 277.948 635.491C277.948 635.491 258.937 621.4 256.288 620.05C253.641 618.7 244.242 612.018 239.055 619.313C233.869 626.611 239.51 632.042 243.067 636.487C246.623 640.934 272.248 659.587 272.248 659.587Z" fill="#3A786D" stroke="#3A786D" stroke-width="1.69351" stroke-miterlimit="10" stroke-linejoin="round"/>
</g>
</g>
<defs>
<clipPath id="clip0_2310_712">
<rect width="763.472" height="940.15" fill="white"/>
</clipPath>
</defs>
</svg>
