<svg width="2848" height="1988" viewBox="0 0 2848 1988" fill="none" xmlns="http://www.w3.org/2000/svg">
<rect width="2848" height="1988" fill="black"/>
<path d="M1350.22 840.43C1318.44 836.13 1304.23 823.977 1304.23 799.858V797.988C1304.23 772.186 1322.55 755.733 1354.15 755.733C1388.74 755.733 1403.88 771.999 1403.88 804.906V809.206H1378.83C1378.83 787.331 1371.72 777.609 1354.33 777.609H1352.65C1338.82 777.609 1329.84 785.274 1329.84 796.679V797.801C1329.84 809.767 1335.26 816.498 1358.26 819.677C1390.05 823.977 1405.19 835.382 1405.19 860.997V863.054C1405.19 890.351 1386.68 906.431 1354.15 906.431C1320.68 906.431 1302.92 890.164 1302.92 856.697V854.827H1327.97C1327.97 875.581 1337.51 884.555 1353.21 884.555H1354.9C1370.6 884.555 1379.58 876.142 1379.58 863.989V862.867C1379.58 850.153 1372.47 843.422 1350.22 840.43Z" fill="#FBFAF8"/>
<path d="M1484.95 904L1483.08 892.595C1476.16 900.635 1465.51 906.431 1450.74 906.431C1429.79 906.431 1420.82 893.156 1420.82 877.263V875.394C1420.82 853.892 1436.15 847.161 1455.41 844.357L1480.65 840.43V840.056C1480.65 827.529 1476.72 821.359 1464.2 821.359C1450.74 821.359 1447.74 829.025 1447.74 837.626H1424.56V835.943C1424.56 819.303 1433.16 802.476 1464.76 802.476C1495.61 802.476 1504.96 816.872 1504.96 840.056V875.955L1506.45 904H1484.95ZM1459.15 886.425C1470.55 886.425 1477.47 880.442 1480.65 876.142V855.201L1459.9 858.566C1449.61 860.249 1445.13 865.11 1445.13 872.776V874.272C1445.13 880.442 1449.24 886.425 1459.15 886.425Z" fill="#FBFAF8"/>
<path d="M1528.62 904V754.424H1552.93V904H1528.62Z" fill="#FBFAF8"/>
<path d="M1714.75 904H1690.45V838.374C1690.45 828.277 1685.59 823.603 1676.42 823.603C1666.33 823.603 1661.09 829.773 1658.1 834.26V904H1633.98V838.374C1633.98 828.277 1628.93 823.603 1619.77 823.603C1609.68 823.603 1604.44 829.773 1601.64 834.26V904H1577.33V832.952L1575.65 804.906H1597.15L1599.21 817.246C1605.19 808.832 1614.72 802.476 1629.31 802.476C1642.4 802.476 1650.81 808.646 1654.92 818.181C1660.72 809.206 1670.63 802.476 1685.77 802.476C1705.59 802.476 1714.75 815.937 1714.75 834.634V904Z" fill="#FBFAF8"/>
<path d="M1797.07 904L1795.2 892.595C1788.28 900.635 1777.62 906.431 1762.85 906.431C1741.91 906.431 1732.94 893.156 1732.94 877.263V875.394C1732.94 853.892 1748.27 847.161 1767.52 844.357L1792.77 840.43V840.056C1792.77 827.529 1788.84 821.359 1776.31 821.359C1762.85 821.359 1759.86 829.025 1759.86 837.626H1736.67V835.943C1736.67 819.303 1745.28 802.476 1776.87 802.476C1807.72 802.476 1817.07 816.872 1817.07 840.056V875.955L1818.57 904H1797.07ZM1771.26 886.425C1782.67 886.425 1789.59 880.442 1792.77 876.142V855.201L1772.01 858.566C1761.73 860.249 1757.24 865.11 1757.24 872.776V874.272C1757.24 880.442 1761.35 886.425 1771.26 886.425Z" fill="#FBFAF8"/>
<path d="M1925.06 904H1900.94V840.056C1900.94 830.521 1896.27 823.603 1885.24 823.603C1873.83 823.603 1867.48 830.334 1864.67 835.008V904H1840.37V832.952L1838.68 804.906H1860.18L1862.43 817.994C1868.6 809.019 1878.88 802.476 1894.59 802.476C1916.27 802.476 1925.06 818.181 1925.06 836.13V904Z" fill="#FBFAF8"/>
<path d="M1350.22 1045.43C1318.44 1041.13 1304.23 1028.98 1304.23 1004.86V1002.99C1304.23 977.186 1322.55 960.733 1354.15 960.733C1388.74 960.733 1403.88 976.999 1403.88 1009.91V1014.21H1378.83C1378.83 992.331 1371.72 982.609 1354.33 982.609H1352.65C1338.82 982.609 1329.84 990.274 1329.84 1001.68V1002.8C1329.84 1014.77 1335.26 1021.5 1358.26 1024.68C1390.05 1028.98 1405.19 1040.38 1405.19 1066V1068.05C1405.19 1095.35 1386.68 1111.43 1354.15 1111.43C1320.68 1111.43 1302.92 1095.16 1302.92 1061.7V1059.83H1327.97C1327.97 1080.58 1337.51 1089.56 1353.21 1089.56H1354.9C1370.6 1089.56 1379.58 1081.14 1379.58 1068.99V1067.87C1379.58 1055.15 1372.47 1048.42 1350.22 1045.43Z" fill="#FBFAF8"/>
<path d="M1424.19 1009.91H1448.3V1073.85C1448.3 1083.39 1452.98 1090.12 1464.2 1090.12C1475.42 1090.12 1481.77 1083.57 1484.76 1078.9V1009.91H1509.07V1080.95L1510.57 1109H1489.06L1486.82 1095.91C1480.65 1104.89 1470.37 1111.43 1454.66 1111.43C1432.97 1111.43 1424.19 1095.73 1424.19 1077.59V1009.91Z" fill="#FBFAF8"/>
<path d="M1571.33 1092.55C1582.92 1092.55 1588.34 1087.5 1588.34 1080.21C1588.34 1071.61 1583.48 1068.61 1569.46 1067.49C1541.97 1065.25 1531.31 1057.58 1531.31 1040.2V1038.7C1531.31 1017.57 1547.95 1007.48 1571.33 1007.48C1599.75 1007.48 1611.52 1020.75 1611.52 1041.32V1042.25H1587.78C1587.78 1032.34 1583.29 1026.36 1571.33 1026.36C1561.04 1026.36 1555.25 1030.85 1555.25 1038.14C1555.25 1045.43 1558.8 1048.98 1573.38 1050.1C1598.25 1052.16 1612.65 1057.96 1612.65 1077.96V1079.27C1612.65 1098.9 1598.62 1111.43 1571.33 1111.43C1542.72 1111.43 1530.01 1096.66 1530.01 1078.71V1077.96H1554.12C1554.12 1086 1558.24 1092.55 1571.33 1092.55Z" fill="#FBFAF8"/>
<path d="M1664.46 1009.91H1691.95V1031.22H1664.46V1074.04C1664.46 1087.31 1670.45 1090.12 1680.54 1090.12C1684.1 1090.12 1688.96 1089.37 1690.08 1088.81V1109C1688.58 1109.75 1683.54 1111.43 1674.75 1111.43C1654.37 1111.43 1640.16 1102.27 1640.16 1076.65V1031.22H1625.01V1009.91H1640.16V981.861H1664.46V1009.91Z" fill="#FBFAF8"/>
<path d="M1772.23 1109L1770.36 1097.59C1763.45 1105.63 1752.79 1111.43 1738.02 1111.43C1717.08 1111.43 1708.1 1098.16 1708.1 1082.26V1080.39C1708.1 1058.89 1723.43 1052.16 1742.69 1049.36L1767.93 1045.43V1045.06C1767.93 1032.53 1764.01 1026.36 1751.48 1026.36C1738.02 1026.36 1735.03 1034.03 1735.03 1042.63H1711.84V1040.94C1711.84 1024.3 1720.44 1007.48 1752.04 1007.48C1782.89 1007.48 1792.24 1021.87 1792.24 1045.06V1080.95L1793.74 1109H1772.23ZM1746.43 1091.42C1757.84 1091.42 1764.76 1085.44 1767.93 1081.14V1060.2L1747.18 1063.57C1736.9 1065.25 1732.41 1070.11 1732.41 1077.78V1079.27C1732.41 1085.44 1736.52 1091.42 1746.43 1091.42Z" fill="#FBFAF8"/>
<path d="M1815.91 1109V1009.91H1840.21V1109H1815.91ZM1841.34 966.342V992.705H1814.79V966.342H1841.34Z" fill="#FBFAF8"/>
<path d="M1949.31 1109H1925.19V1045.06C1925.19 1035.52 1920.52 1028.6 1909.49 1028.6C1898.08 1028.6 1891.72 1035.33 1888.92 1040.01V1109H1864.61V1037.95L1862.93 1009.91H1884.43L1886.68 1022.99C1892.85 1014.02 1903.13 1007.48 1918.83 1007.48C1940.52 1007.48 1949.31 1023.18 1949.31 1041.13V1109Z" fill="#FBFAF8"/>
<path d="M2031.95 1109L2030.08 1097.59C2023.16 1105.63 2012.5 1111.43 1997.73 1111.43C1976.79 1111.43 1967.82 1098.16 1967.82 1082.26V1080.39C1967.82 1058.89 1983.15 1052.16 2002.41 1049.36L2027.65 1045.43V1045.06C2027.65 1032.53 2023.72 1026.36 2011.19 1026.36C1997.73 1026.36 1994.74 1034.03 1994.74 1042.63H1971.56V1040.94C1971.56 1024.3 1980.16 1007.48 2011.75 1007.48C2042.6 1007.48 2051.95 1021.87 2051.95 1045.06V1080.95L2053.45 1109H2031.95ZM2006.14 1091.42C2017.55 1091.42 2024.47 1085.44 2027.65 1081.14V1060.2L2006.89 1063.57C1996.61 1065.25 1992.12 1070.11 1992.12 1077.78V1079.27C1992.12 1085.44 1996.24 1091.42 2006.14 1091.42Z" fill="#FBFAF8"/>
<path d="M2099.37 959.424V1019.07C2104.97 1012.34 2113.39 1007.48 2125.73 1007.48C2152.84 1007.48 2162.75 1028.04 2162.75 1056.46V1062.44C2162.75 1090.68 2152.84 1111.43 2125.73 1111.43C2111.52 1111.43 2102.54 1105.07 2097.12 1096.66L2095.06 1109H2073.56L2075.06 1080.95V959.424H2099.37ZM2099.37 1040.01V1078.9C2102.36 1083.57 2108.53 1090.12 2118.81 1090.12C2132.65 1090.12 2138.44 1079.83 2138.44 1062.44V1056.46C2138.44 1039.07 2132.65 1028.6 2118.81 1028.6C2108.53 1028.6 2102.36 1035.33 2099.37 1040.01Z" fill="#FBFAF8"/>
<path d="M2183.31 1109V1009.91H2207.62V1109H2183.31ZM2208.74 966.342V992.705H2182.19V966.342H2208.74Z" fill="#FBFAF8"/>
<path d="M2232.39 1109V959.424H2256.7V1109H2232.39Z" fill="#FBFAF8"/>
<path d="M2281.47 1109V1009.91H2305.78V1109H2281.47ZM2306.9 966.342V992.705H2280.35V966.342H2306.9Z" fill="#FBFAF8"/>
<path d="M2363.08 1009.91H2390.57V1031.22H2363.08V1074.04C2363.08 1087.31 2369.06 1090.12 2379.16 1090.12C2382.71 1090.12 2387.57 1089.37 2388.7 1088.81V1109C2387.2 1109.75 2382.15 1111.43 2373.36 1111.43C2352.99 1111.43 2338.78 1102.27 2338.78 1076.65V1031.22H2323.63V1009.91H2338.78V981.861H2363.08V1009.91Z" fill="#FBFAF8"/>
<path d="M2450.47 1078.71L2472.35 1009.91H2498.52L2463.56 1104.14L2450.47 1146.39H2421.68L2437.38 1104.14L2402.42 1009.91H2428.78L2450.47 1078.71Z" fill="#FBFAF8"/>
<path d="M1332.46 1260.59V1315H1307.41V1169.16H1353.03C1375.84 1169.16 1401.82 1175.89 1401.82 1212.91V1216.65C1401.82 1240.03 1391.35 1251.43 1378.08 1256.67L1401.82 1315H1374.71L1353.77 1260.59H1332.46ZM1332.46 1238.72H1353.96C1363.68 1238.72 1376.4 1235.16 1376.4 1215.91V1213.85C1376.4 1194.59 1363.68 1191.04 1353.96 1191.04H1332.46V1238.72Z" fill="#FBFAF8"/>
<path d="M1509.11 1274.43H1443.67C1444.61 1290.69 1452.09 1298.55 1465.92 1298.55C1479.2 1298.55 1486.12 1290.69 1486.12 1283.22H1509.11V1283.96C1509.11 1301.73 1494.16 1317.43 1465.74 1317.43C1433.76 1317.43 1419.37 1296.12 1419.37 1267.88V1263.02C1419.37 1234.79 1434.14 1213.48 1464.8 1213.48C1495.28 1213.48 1509.11 1234.79 1509.11 1263.02V1274.43ZM1464.24 1232.36C1451.15 1232.36 1444.61 1240.77 1443.67 1256.48H1484.62C1483.87 1240.77 1477.52 1232.36 1464.24 1232.36Z" fill="#FBFAF8"/>
<path d="M1579.64 1317.43C1567.3 1317.43 1558.89 1312.76 1553.28 1305.84V1352.39H1528.98V1243.95L1527.48 1215.91H1548.98L1551.04 1228.25C1556.46 1219.83 1565.44 1213.48 1579.64 1213.48C1606.76 1213.48 1616.66 1234.04 1616.66 1262.46V1268.44C1616.66 1296.68 1606.76 1317.43 1579.64 1317.43ZM1553.28 1246.01V1284.9C1556.27 1289.57 1562.44 1296.12 1572.73 1296.12C1586.56 1296.12 1592.36 1285.83 1592.36 1268.44V1262.46C1592.36 1245.07 1586.56 1234.6 1572.73 1234.6C1562.44 1234.6 1556.27 1241.33 1553.28 1246.01Z" fill="#FBFAF8"/>
<path d="M1677.61 1317.43C1646.58 1317.43 1632.74 1296.68 1632.74 1268.44V1262.46C1632.74 1234.04 1646.58 1213.48 1677.61 1213.48C1708.65 1213.48 1722.49 1234.04 1722.49 1262.46V1268.44C1722.49 1296.68 1708.65 1317.43 1677.61 1317.43ZM1677.61 1296.12C1691.82 1296.12 1698.18 1285.46 1698.18 1268.44V1262.46C1698.18 1245.26 1691.82 1234.6 1677.61 1234.6C1663.4 1234.6 1657.05 1245.26 1657.05 1262.46V1268.44C1657.05 1285.46 1663.4 1296.12 1677.61 1296.12Z" fill="#FBFAF8"/>
<path d="M1791.15 1213.48C1792.27 1213.48 1793.39 1213.66 1793.95 1213.66V1237.22H1789.84C1776.75 1237.22 1769.83 1243.2 1766.84 1247.69V1315H1742.53V1243.95L1740.85 1215.91H1762.35L1764.41 1227.87C1770.02 1219.65 1778.99 1213.48 1791.15 1213.48Z" fill="#FBFAF8"/>
<path d="M1846.61 1215.91H1874.1V1237.22H1846.61V1280.04C1846.61 1293.31 1852.6 1296.12 1862.69 1296.12C1866.25 1296.12 1871.11 1295.37 1872.23 1294.81V1315C1870.73 1315.75 1865.69 1317.43 1856.9 1317.43C1836.52 1317.43 1822.31 1308.27 1822.31 1282.65V1237.22H1807.16V1215.91H1822.31V1187.86H1846.61V1215.91Z" fill="#FBFAF8"/>
<g clip-path="url(#clip0_81_57)">
<g opacity="0.899439">
<path d="M728.734 536.701C737.933 564.768 810.193 597.732 857.937 615.407C890.262 627.375 921.118 640.846 921.118 640.846C921.118 640.846 967.755 659.675 1008.56 695.514C1041.35 724.316 1065.95 779.587 1062.85 839.645C1060.36 888.006 1057.6 904.743 1050.28 926.456C1045.8 939.765 1039 951.619 1026.24 967.628C990.638 1012.27 1078.39 945.279 1097 1022.63C1098.66 1029.53 1097.14 1068.07 1096.99 1073.76L1096.42 1098.93C1096.42 1098.93 1093.94 1135.24 1087.87 1162.89C1083.92 1180.87 1073.22 1211.81 1066.21 1227.35C1057.3 1247.1 1047.77 1264.64 1028.19 1292.19C1008.66 1319.66 976.424 1358.23 950.578 1376.15C898.813 1412.03 846.466 1446.37 728.734 1451.44" fill="black"/>
<path d="M728.734 536.701C737.933 564.768 810.193 597.732 857.937 615.407C890.262 627.375 921.118 640.846 921.118 640.846C921.118 640.846 967.755 659.675 1008.56 695.514C1041.35 724.316 1065.95 779.587 1062.85 839.645C1060.36 888.006 1057.6 904.743 1050.28 926.456C1045.8 939.765 1039 951.619 1026.24 967.628C990.638 1012.27 1078.39 945.279 1097 1022.63C1098.66 1029.53 1097.14 1068.07 1096.99 1073.76L1096.42 1098.93C1096.42 1098.93 1093.94 1135.24 1087.87 1162.89C1083.92 1180.87 1073.22 1211.81 1066.21 1227.35C1057.3 1247.1 1047.77 1264.64 1028.19 1292.19C1008.66 1319.66 976.424 1358.23 950.578 1376.15C898.813 1412.03 846.466 1446.37 728.734 1451.44" stroke="#FBFAF8" stroke-width="15" stroke-miterlimit="10" stroke-linecap="round"/>
<path d="M728.734 536.701C719.537 564.768 647.275 597.732 599.532 615.407C567.208 627.375 536.352 640.846 536.352 640.846C536.352 640.846 489.715 659.675 448.908 695.514C416.115 724.316 391.52 779.587 394.618 839.645C397.111 888.006 399.868 904.743 407.187 926.456C411.671 939.765 418.471 951.619 431.235 967.628C466.832 1012.27 379.082 945.279 360.472 1022.63C358.811 1029.53 360.33 1068.07 360.48 1073.76L361.049 1098.93C361.049 1098.93 363.524 1135.24 369.6 1162.89C373.551 1180.87 384.247 1211.81 391.26 1227.35C400.169 1247.1 409.699 1264.64 429.281 1292.19C448.812 1319.66 481.046 1358.23 506.892 1376.15C558.656 1412.03 611.004 1446.37 728.734 1451.44" fill="black"/>
<path d="M728.734 536.701C719.537 564.768 647.275 597.732 599.532 615.407C567.208 627.375 536.352 640.846 536.352 640.846C536.352 640.846 489.715 659.675 448.908 695.514C416.115 724.316 391.52 779.587 394.618 839.645C397.111 888.006 399.868 904.743 407.187 926.456C411.671 939.765 418.471 951.619 431.235 967.628C466.832 1012.27 379.082 945.279 360.472 1022.63C358.811 1029.53 360.33 1068.07 360.48 1073.76L361.049 1098.93C361.049 1098.93 363.524 1135.24 369.6 1162.89C373.551 1180.87 384.247 1211.81 391.26 1227.35C400.169 1247.1 409.699 1264.64 429.281 1292.19C448.812 1319.66 481.046 1358.23 506.892 1376.15C558.656 1412.03 611.004 1446.37 728.734 1451.44" stroke="#FBFAF8" stroke-width="15" stroke-miterlimit="10" stroke-linecap="round"/>
<path d="M641.189 1259.77C641.189 1259.77 663.06 1308.89 703.196 1345.12C743.195 1381.23 795.81 1397.41 843.444 1393.69C862.167 1392.22 866.333 1392.17 878.939 1390.74C934.198 1384.47 964.238 1364.84 964.238 1364.84" stroke="#FBFAF8" stroke-width="15" stroke-miterlimit="10" stroke-linecap="round" stroke-linejoin="round"/>
<path d="M646.327 1211.07C646.327 1211.07 646.735 1178.06 654.953 1142.88C662.284 1111.5 676.449 1079.21 692.366 1054.35C726.128 1001.62 793.665 948.883 815.653 933.665C835.875 919.672 843.786 915.797 862.294 906.218C884.066 894.948 906.83 885.483 918.66 880.767C929.533 876.43 934.761 874.462 948.046 869.629C965.161 863.402 980.141 858.978 979.85 861.019C979.388 864.252 970.79 931.538 955.804 975.388C940.818 1019.24 927.104 1060.3 892.936 1108.94C858.77 1157.58 850.736 1166.34 817.36 1189.81C798.024 1203.4 775.219 1214.59 759.453 1221.59C748.004 1226.68 735.835 1229.56 735.835 1229.56C735.835 1229.56 669.59 1245.44 662 1239.52C654.408 1233.6 697.591 1175.3 701.699 1169.76C705.807 1164.21 731.076 1134.13 737.137 1127.71C743.2 1121.29 776.904 1091.55 786.571 1084.14C796.237 1076.73 795.611 1071.06 794.462 1068.49C793.314 1065.93 789.871 1062.77 781.781 1065C773.69 1067.23 756.682 1079.4 747.822 1087.71C733.909 1100.75 728.734 1104.36 697.242 1140.64C669.48 1172.63 646.327 1211.07 646.327 1211.07Z" fill="#FBFAF8" stroke="#FBFAF8" stroke-miterlimit="10" stroke-linejoin="round"/>
<path d="M619.248 1183.59C619.248 1183.59 619.224 1226.24 619.667 1231.78C619.949 1235.29 595.019 1226.29 574.891 1208.58C560.81 1196.2 550.947 1184.9 546.544 1179.79C538.754 1170.75 519.871 1139.09 514.616 1125.62C512.127 1119.25 507.226 1107.59 502.248 1089.9C496.714 1070.24 494.147 1044.54 495.481 1041.3C498.015 1035.15 560.085 1065.52 567.545 1071C575.005 1076.48 606.128 1098.43 614.255 1106.74C622.38 1115.05 630.646 1122.83 632.721 1126.04C634.796 1129.25 624.948 1159.49 624.948 1159.49C624.948 1159.49 605.937 1145.4 603.288 1144.05C600.641 1142.7 591.242 1136.02 586.055 1143.31C580.869 1150.61 586.51 1156.04 590.067 1160.49C593.623 1164.93 619.248 1183.59 619.248 1183.59Z" fill="#FBFAF8" stroke="#FBFAF8" stroke-miterlimit="10" stroke-linejoin="round"/>
</g>
</g>
<defs>
<clipPath id="clip0_81_57">
<rect width="763.47" height="940.148" fill="white" transform="translate(347 524)"/>
</clipPath>
</defs>
</svg>
