<svg width="149" height="66" viewBox="0 0 149 66" fill="none" xmlns="http://www.w3.org/2000/svg">
<path d="M69.4287 21.8989C67.229 21.6013 66.2456 20.7602 66.2456 19.091V18.9617C66.2456 17.176 67.5137 16.0374 69.7004 16.0374C72.0942 16.0374 73.1423 17.1631 73.1423 19.4404V19.738H71.4084C71.4084 18.2241 70.9167 17.5513 69.7134 17.5513H69.5969C68.6394 17.5513 68.0183 18.0818 68.0183 18.8711V18.9487C68.0183 19.7768 68.3935 20.2427 69.9851 20.4626C72.1848 20.7602 73.2329 21.5495 73.2329 23.3222V23.4646C73.2329 25.3537 71.9519 26.4665 69.7004 26.4665C67.3843 26.4665 66.155 25.3408 66.155 23.0246V22.8952H67.8889C67.8889 24.3315 68.5488 24.9526 69.6357 24.9526H69.7522C70.8391 24.9526 71.4602 24.3703 71.4602 23.5293V23.4516C71.4602 22.5717 70.9685 22.1059 69.4287 21.8989Z" fill="#295368"/>
<path d="M78.7527 26.2983L78.6233 25.509C78.1446 26.0654 77.407 26.4665 76.3848 26.4665C74.9356 26.4665 74.3145 25.5478 74.3145 24.4479V24.3186C74.3145 22.8305 75.3756 22.3647 76.7083 22.1706L78.4551 21.8989V21.873C78.4551 21.0061 78.1834 20.5791 77.3165 20.5791C76.3848 20.5791 76.1778 21.1096 76.1778 21.7048H74.5733V21.5883C74.5733 20.4367 75.1685 19.2722 77.3553 19.2722C79.4903 19.2722 80.1372 20.2685 80.1372 21.873V24.3574L80.2408 26.2983H78.7527ZM76.9671 25.082C77.7564 25.082 78.2352 24.6679 78.4551 24.3703V22.9211L77.0189 23.154C76.3072 23.2705 75.9966 23.6069 75.9966 24.1374V24.2409C75.9966 24.6679 76.2813 25.082 76.9671 25.082Z" fill="#295368"/>
<path d="M81.7752 26.2983V15.9468H83.4573V26.2983H81.7752Z" fill="#295368"/>
<path d="M94.6563 26.2983H92.9742V21.7566C92.9742 21.0578 92.6378 20.7343 92.0038 20.7343C91.305 20.7343 90.9427 21.1613 90.7357 21.4719V26.2983H89.0665V21.7566C89.0665 21.0578 88.7172 20.7343 88.0831 20.7343C87.3844 20.7343 87.0221 21.1613 86.828 21.4719V26.2983H85.1459V21.3813L85.0294 19.4404H86.5175L86.6598 20.2944C87.0739 19.7121 87.7338 19.2722 88.743 19.2722C89.6488 19.2722 90.2311 19.6992 90.5157 20.3591C90.9169 19.738 91.6026 19.2722 92.6507 19.2722C94.0223 19.2722 94.6563 20.2038 94.6563 21.4978V26.2983Z" fill="#295368"/>
<path d="M100.353 26.2983L100.224 25.509C99.7448 26.0654 99.0072 26.4665 97.985 26.4665C96.5358 26.4665 95.9147 25.5478 95.9147 24.4479V24.3186C95.9147 22.8305 96.9757 22.3647 98.3085 22.1706L100.055 21.8989V21.873C100.055 21.0061 99.7836 20.5791 98.9166 20.5791C97.985 20.5791 97.778 21.1096 97.778 21.7048H96.1735V21.5883C96.1735 20.4367 96.7687 19.2722 98.9554 19.2722C101.09 19.2722 101.737 20.2685 101.737 21.873V24.3574L101.841 26.2983H100.353ZM98.5673 25.082C99.3566 25.082 99.8353 24.6679 100.055 24.3703V22.9211L98.619 23.154C97.9074 23.2705 97.5968 23.6069 97.5968 24.1374V24.2409C97.5968 24.6679 97.8815 25.082 98.5673 25.082Z" fill="#295368"/>
<path d="M109.211 26.2983H107.542V21.873C107.542 21.2131 107.218 20.7343 106.455 20.7343C105.666 20.7343 105.226 21.2002 105.032 21.5236V26.2983H103.349V21.3813L103.233 19.4404H104.721L104.876 20.3462C105.303 19.7251 106.015 19.2722 107.102 19.2722C108.603 19.2722 109.211 20.3591 109.211 21.6013V26.2983Z" fill="#295368"/>
<path d="M69.4287 36.0861C67.229 35.7885 66.2456 34.9474 66.2456 33.2782V33.1488C66.2456 31.3632 67.5137 30.2245 69.7004 30.2245C72.0942 30.2245 73.1423 31.3503 73.1423 33.6276V33.9252H71.4084C71.4084 32.4113 70.9167 31.7384 69.7134 31.7384H69.5969C68.6394 31.7384 68.0183 32.269 68.0183 33.0583V33.1359C68.0183 33.964 68.3935 34.4298 69.9851 34.6498C72.1848 34.9474 73.2329 35.7367 73.2329 37.5094V37.6517C73.2329 39.5409 71.9519 40.6537 69.7004 40.6537C67.3843 40.6537 66.155 39.5279 66.155 37.2118V37.0824H67.8889C67.8889 38.5187 68.5488 39.1398 69.6357 39.1398H69.7522C70.8391 39.1398 71.4602 38.5575 71.4602 37.7164V37.6388C71.4602 36.7589 70.9685 36.2931 69.4287 36.0861Z" fill="#295368"/>
<path d="M74.5474 33.6276H76.2166V38.0529C76.2166 38.7128 76.5401 39.1786 77.3165 39.1786C78.0928 39.1786 78.5328 38.7257 78.7398 38.4022V33.6276H80.4219V38.5446L80.5254 40.4855H79.0374L78.8821 39.5797C78.4551 40.2008 77.7435 40.6537 76.6565 40.6537C75.1556 40.6537 74.5474 39.5668 74.5474 38.3116V33.6276Z" fill="#295368"/>
<path d="M84.7304 39.3468C85.5327 39.3468 85.9079 38.9974 85.9079 38.4928C85.9079 37.8976 85.5715 37.6906 84.601 37.6129C82.6989 37.4576 81.9614 36.9271 81.9614 35.7238V35.6203C81.9614 34.1581 83.113 33.4594 84.7304 33.4594C86.6972 33.4594 87.5124 34.3781 87.5124 35.8014V35.8661H85.8691C85.8691 35.1803 85.5585 34.7663 84.7304 34.7663C84.0188 34.7663 83.6176 35.0768 83.6176 35.5814C83.6176 36.0861 83.8635 36.3319 84.8728 36.4096C86.5937 36.5519 87.59 36.953 87.59 38.3375V38.4281C87.59 39.7867 86.6196 40.6537 84.7304 40.6537C82.7507 40.6537 81.8708 39.6315 81.8708 38.3893V38.3375H83.54C83.54 38.8939 83.8247 39.3468 84.7304 39.3468Z" fill="#295368"/>
<path d="M91.1762 33.6276H93.0782V35.1027H91.1762V38.0658C91.1762 38.9845 91.5902 39.1786 92.2889 39.1786C92.5348 39.1786 92.8712 39.1268 92.9488 39.088V40.4855C92.8453 40.5372 92.496 40.6537 91.8878 40.6537C90.4774 40.6537 89.494 40.0196 89.494 38.2469V35.1027H88.4459V33.6276H89.494V31.6867H91.1762V33.6276Z" fill="#295368"/>
<path d="M98.6344 40.4855L98.505 39.6962C98.0262 40.2526 97.2887 40.6537 96.2665 40.6537C94.8173 40.6537 94.1962 39.735 94.1962 38.6351V38.5057C94.1962 37.0177 95.2572 36.5519 96.59 36.3578L98.3368 36.0861V36.0602C98.3368 35.1933 98.0651 34.7663 97.1981 34.7663C96.2665 34.7663 96.0595 35.2968 96.0595 35.892H94.455V35.7755C94.455 34.6239 95.0502 33.4594 97.2369 33.4594C99.3719 33.4594 100.019 34.4557 100.019 36.0602V38.5446L100.122 40.4855H98.6344ZM96.8488 39.2692C97.6381 39.2692 98.1168 38.8551 98.3368 38.5575V37.1083L96.9005 37.3412C96.1888 37.4576 95.8783 37.7941 95.8783 38.3246V38.4281C95.8783 38.8551 96.163 39.2692 96.8488 39.2692Z" fill="#295368"/>
<path d="M101.657 40.4855V33.6276H103.339V40.4855H101.657ZM103.417 30.6127V32.4372H101.579V30.6127H103.417Z" fill="#295368"/>
<path d="M110.889 40.4855H109.22V36.0602C109.22 35.4003 108.896 34.9215 108.133 34.9215C107.344 34.9215 106.904 35.3873 106.71 35.7108V40.4855H105.028V35.5685L104.911 33.6276H106.399L106.554 34.5333C106.981 33.9123 107.693 33.4594 108.78 33.4594C110.281 33.4594 110.889 34.5463 110.889 35.7885V40.4855Z" fill="#295368"/>
<path d="M116.608 40.4855L116.479 39.6962C116 40.2526 115.262 40.6537 114.24 40.6537C112.791 40.6537 112.17 39.735 112.17 38.6351V38.5057C112.17 37.0177 113.231 36.5519 114.564 36.3578L116.31 36.0861V36.0602C116.31 35.1933 116.039 34.7663 115.172 34.7663C114.24 34.7663 114.033 35.2968 114.033 35.892H112.429V35.7755C112.429 34.6239 113.024 33.4594 115.211 33.4594C117.346 33.4594 117.993 34.4557 117.993 36.0602V38.5446L118.096 40.4855H116.608ZM114.822 39.2692C115.612 39.2692 116.09 38.8551 116.31 38.5575V37.1083L114.874 37.3412C114.162 37.4576 113.852 37.7941 113.852 38.3246V38.4281C113.852 38.8551 114.137 39.2692 114.822 39.2692Z" fill="#295368"/>
<path d="M121.274 30.134V34.2616C121.662 33.7958 122.244 33.4594 123.098 33.4594C124.974 33.4594 125.66 34.8827 125.66 36.8495V37.2636C125.66 39.2174 124.974 40.6537 123.098 40.6537C122.115 40.6537 121.494 40.2137 121.118 39.6315L120.976 40.4855H119.488L119.592 38.5446V30.134H121.274ZM121.274 35.7108V38.4022C121.481 38.7257 121.908 39.1786 122.619 39.1786C123.577 39.1786 123.978 38.4669 123.978 37.2636V36.8495C123.978 35.6461 123.577 34.9215 122.619 34.9215C121.908 34.9215 121.481 35.3873 121.274 35.7108Z" fill="#295368"/>
<path d="M127.083 40.4855V33.6276H128.765V40.4855H127.083ZM128.843 30.6127V32.4372H127.006V30.6127H128.843Z" fill="#295368"/>
<path d="M130.48 40.4855V30.134H132.162V40.4855H130.48Z" fill="#295368"/>
<path d="M133.876 40.4855V33.6276H135.559V40.4855H133.876ZM135.636 30.6127V32.4372H133.799V30.6127H135.636Z" fill="#295368"/>
<path d="M139.524 33.6276H141.427V35.1027H139.524V38.0658C139.524 38.9845 139.939 39.1786 140.637 39.1786C140.883 39.1786 141.22 39.1268 141.297 39.088V40.4855C141.194 40.5372 140.844 40.6537 140.236 40.6537C138.826 40.6537 137.842 40.0196 137.842 38.2469V35.1027H136.794V33.6276H137.842V31.6867H139.524V33.6276Z" fill="#295368"/>
<path d="M145.572 38.3893L147.086 33.6276H148.898L146.478 40.149L145.572 43.0733H143.58L144.667 40.149L142.247 33.6276H144.071L145.572 38.3893Z" fill="#295368"/>
<path d="M68.1995 50.9765V54.7418H66.4656V44.6491H69.6228C71.2014 44.6491 73 45.1149 73 47.6769V47.9357C73 49.5532 72.2754 50.3425 71.3567 50.7048L73 54.7418H71.1238L69.6745 50.9765H68.1995ZM68.1995 49.4626H69.6875C70.3603 49.4626 71.2402 49.2167 71.2402 47.884V47.7416C71.2402 46.4089 70.3603 46.163 69.6875 46.163H68.1995V49.4626Z" fill="#295368"/>
<path d="M80.4249 51.934H75.8962C75.9609 53.0597 76.4784 53.6032 77.4359 53.6032C78.3546 53.6032 78.8334 53.0597 78.8334 52.5421H80.4249V52.5939C80.4249 53.8232 79.3898 54.9101 77.423 54.9101C75.2104 54.9101 74.214 53.435 74.214 51.4811V51.1447C74.214 49.1909 75.2362 47.7158 77.3583 47.7158C79.4674 47.7158 80.4249 49.1909 80.4249 51.1447V51.934ZM77.3195 49.0226C76.4137 49.0226 75.9609 49.6049 75.8962 50.6918H78.7299C78.6781 49.6049 78.2382 49.0226 77.3195 49.0226Z" fill="#295368"/>
<path d="M85.3061 54.9101C84.4521 54.9101 83.8699 54.5866 83.4817 54.1078V57.3297H81.7995V49.8249L81.696 47.884H83.1841L83.3264 48.738C83.7016 48.1557 84.3227 47.7158 85.3061 47.7158C87.1823 47.7158 87.8681 49.1391 87.8681 51.1059V51.5199C87.8681 53.4738 87.1823 54.9101 85.3061 54.9101ZM83.4817 49.9672V52.6586C83.6887 52.9821 84.1157 53.435 84.8274 53.435C85.7849 53.435 86.186 52.7233 86.186 51.5199V51.1059C86.186 49.9025 85.7849 49.1779 84.8274 49.1779C84.1157 49.1779 83.6887 49.6437 83.4817 49.9672Z" fill="#295368"/>
<path d="M92.0861 54.9101C89.9381 54.9101 88.9806 53.4738 88.9806 51.5199V51.1059C88.9806 49.1391 89.9381 47.7158 92.0861 47.7158C94.234 47.7158 95.1915 49.1391 95.1915 51.1059V51.5199C95.1915 53.4738 94.234 54.9101 92.0861 54.9101ZM92.0861 53.435C93.0694 53.435 93.5094 52.6974 93.5094 51.5199V51.1059C93.5094 49.9155 93.0694 49.1779 92.0861 49.1779C91.1027 49.1779 90.6627 49.9155 90.6627 51.1059V51.5199C90.6627 52.6974 91.1027 53.435 92.0861 53.435Z" fill="#295368"/>
<path d="M99.9433 47.7158C100.021 47.7158 100.099 47.7287 100.137 47.7287V49.3591H99.8527C98.947 49.3591 98.4682 49.7731 98.2612 50.0837V54.7418H96.5791V49.8249L96.4626 47.884H97.9506L98.093 48.7121C98.4811 48.1428 99.1022 47.7158 99.9433 47.7158Z" fill="#295368"/>
<path d="M103.782 47.884H105.684V49.3591H103.782V52.3222C103.782 53.2409 104.196 53.435 104.895 53.435C105.141 53.435 105.477 53.3832 105.555 53.3444V54.7418C105.451 54.7936 105.102 54.9101 104.494 54.9101C103.083 54.9101 102.1 54.276 102.1 52.5033V49.3591H101.052V47.884H102.1V45.9431H103.782V47.884Z" fill="#295368"/>
<g clip-path="url(#clip0_2372_902)">
<g opacity="0.899439">
<path d="M26.4182 0.87915C27.0548 2.82151 32.0557 5.10282 35.3598 6.32604C37.5969 7.15429 39.7323 8.08662 39.7323 8.08662C39.7323 8.08662 42.9599 9.38966 45.7838 11.87C48.0534 13.8632 49.7555 17.6883 49.5411 21.8447C49.3685 25.1916 49.1777 26.3498 48.6713 27.8525C48.3608 28.7735 47.8904 29.5939 47.007 30.7018C44.5435 33.7912 50.6163 29.1551 51.9041 34.5082C52.0192 34.9861 51.9141 37.6528 51.9037 38.0466L51.8642 39.7886C51.8642 39.7886 51.6929 42.3016 51.2725 44.215C50.999 45.4594 50.2589 47.6007 49.7736 48.6764C49.1568 50.0431 48.4975 51.2572 47.1422 53.1634C45.7906 55.0645 43.5598 57.734 41.7711 58.9739C38.1886 61.4569 34.566 63.8336 26.4182 64.1848" fill="#FBFAF8"/>
<path d="M26.4182 0.87915C27.0548 2.82151 32.0557 5.10282 35.3598 6.32604C37.5969 7.15429 39.7323 8.08662 39.7323 8.08662C39.7323 8.08662 42.9599 9.38966 45.7838 11.87C48.0534 13.8632 49.7555 17.6883 49.5411 21.8447C49.3685 25.1916 49.1777 26.3498 48.6713 27.8525C48.3608 28.7735 47.8904 29.5939 47.007 30.7018C44.5435 33.7912 50.6163 29.1551 51.9041 34.5082C52.0192 34.9861 51.9141 37.6528 51.9037 38.0466L51.8642 39.7886C51.8642 39.7886 51.6929 42.3016 51.2725 44.215C50.999 45.4594 50.2589 47.6007 49.7736 48.6764C49.1568 50.0431 48.4975 51.2572 47.1422 53.1634C45.7906 55.0645 43.5598 57.734 41.7711 58.9739C38.1886 61.4569 34.566 63.8336 26.4182 64.1848" stroke="#37786D" stroke-width="1.75801" stroke-miterlimit="10" stroke-linecap="round"/>
<path d="M26.4182 0.87915C25.7817 2.82151 20.7807 5.10282 17.4766 6.32604C15.2396 7.15429 13.1042 8.08662 13.1042 8.08662C13.1042 8.08662 9.87662 9.38966 7.05256 11.87C4.78309 13.8632 3.08099 17.6883 3.29535 21.8447C3.46787 25.1916 3.65867 26.3498 4.16521 27.8525C4.47556 28.7735 4.94612 29.5939 5.82946 30.7018C8.29301 33.7912 2.22016 29.1551 0.93224 34.5082C0.817267 34.9861 0.922394 37.6528 0.932825 38.0466L0.972206 39.7886C0.972206 39.7886 1.14344 42.3016 1.56395 44.215C1.83738 45.4594 2.57762 47.6007 3.06294 48.6764C3.67953 50.0431 4.33902 51.2572 5.69421 53.1634C7.04588 55.0645 9.27667 57.734 11.0654 58.9739C14.6477 61.4569 18.2705 63.8336 26.4182 64.1848" fill="#FBFAF8"/>
<path d="M26.4182 0.87915C25.7817 2.82151 20.7807 5.10282 17.4766 6.32604C15.2396 7.15429 13.1042 8.08662 13.1042 8.08662C13.1042 8.08662 9.87662 9.38966 7.05256 11.87C4.78309 13.8632 3.08099 17.6883 3.29535 21.8447C3.46787 25.1916 3.65867 26.3498 4.16521 27.8525C4.47556 28.7735 4.94612 29.5939 5.82946 30.7018C8.29301 33.7912 2.22016 29.1551 0.93224 34.5082C0.817267 34.9861 0.922394 37.6528 0.932825 38.0466L0.972206 39.7886C0.972206 39.7886 1.14344 42.3016 1.56395 44.215C1.83738 45.4594 2.57762 47.6007 3.06294 48.6764C3.67953 50.0431 4.33902 51.2572 5.69421 53.1634C7.04588 55.0645 9.27667 57.734 11.0654 58.9739C14.6477 61.4569 18.2705 63.8336 26.4182 64.1848" stroke="#37786D" stroke-width="1.75801" stroke-miterlimit="10" stroke-linecap="round"/>
<path d="M20.3596 50.9199C20.3596 50.9199 21.8733 54.3194 24.6509 56.8267C27.4191 59.3253 31.0604 60.445 34.3569 60.1877C35.6526 60.0865 35.9409 60.0826 36.8134 59.9837C40.6376 59.5497 42.7165 58.1914 42.7165 58.1914" stroke="#3A786D" stroke-width="1.75801" stroke-miterlimit="10" stroke-linecap="round" stroke-linejoin="round"/>
<path d="M20.7151 47.5493C20.7151 47.5493 20.7433 45.2649 21.3121 42.8304C21.8195 40.6588 22.7997 38.4237 23.9013 36.7034C26.2378 33.0543 30.9118 29.4044 32.4335 28.3512C33.833 27.3828 34.3804 27.1146 35.6613 26.4517C37.168 25.6718 38.7434 25.0167 39.5622 24.6903C40.3146 24.3902 40.6764 24.254 41.5959 23.9195C42.7803 23.4885 43.817 23.1824 43.7969 23.3236C43.7649 23.5474 43.1699 28.204 42.1328 31.2387C41.0957 34.2732 40.1466 37.1152 37.7819 40.4814C35.4174 43.8477 34.8614 44.4536 32.5516 46.0778C31.2134 47.0188 29.6352 47.7929 28.5441 48.2776C27.7518 48.6297 26.9096 48.8288 26.9096 48.8288C26.9096 48.8288 22.3251 49.928 21.7998 49.5182C21.2744 49.1082 24.2629 45.0741 24.5472 44.6902C24.8315 44.3064 26.5803 42.2247 26.9997 41.7802C27.4193 41.3357 29.7518 39.2774 30.4208 38.7649C31.0898 38.2524 31.0464 37.8595 30.967 37.682C30.8875 37.5044 30.6492 37.2857 30.0894 37.4402C29.5294 37.5948 28.3523 38.437 27.7391 39.0117C26.7763 39.9144 26.4182 40.1643 24.2387 42.6752C22.3175 44.8888 20.7151 47.5493 20.7151 47.5493Z" fill="#3A786D" stroke="#3A786D" stroke-width="0.1172" stroke-miterlimit="10" stroke-linejoin="round"/>
<path d="M18.8411 45.6473C18.8411 45.6473 18.8394 48.5991 18.8702 48.9827C18.8896 49.2259 17.1643 48.6024 15.7714 47.3774C14.7969 46.5204 14.1143 45.7381 13.8096 45.3846C13.2704 44.7592 11.9637 42.5681 11.6 41.636C11.4277 41.1946 11.0885 40.3879 10.7441 39.1638C10.3611 37.803 10.1834 36.0246 10.2757 35.8005C10.4511 35.375 14.7467 37.4762 15.263 37.8556C15.7792 38.2348 17.9331 39.7542 18.4956 40.3293C19.0579 40.9043 19.63 41.4426 19.7735 41.6649C19.9171 41.8873 19.2356 43.9798 19.2356 43.9798C19.2356 43.9798 17.9199 43.0045 17.7366 42.9111C17.5534 42.8177 16.9029 42.3553 16.544 42.8602C16.1851 43.3652 16.5755 43.741 16.8216 44.0487C17.0677 44.3565 18.8411 45.6473 18.8411 45.6473Z" fill="#3A786D" stroke="#3A786D" stroke-width="0.1172" stroke-miterlimit="10" stroke-linejoin="round"/>
</g>
</g>
<defs>
<clipPath id="clip0_2372_902">
<rect width="52.8366" height="65.0638" fill="white"/>
</clipPath>
</defs>
</svg>
