<svg width="56" height="68" viewBox="0 0 56 68" fill="none" xmlns="http://www.w3.org/2000/svg">
<g opacity="0.899439">
<path d="M27.6106 0.918457C28.276 2.94848 33.5025 5.33274 36.9557 6.61116C39.2937 7.47679 41.5255 8.4512 41.5255 8.4512C41.5255 8.4512 44.8987 9.81304 47.8501 12.4053C50.2221 14.4885 52.001 18.4862 51.777 22.8301C51.5966 26.3281 51.3972 27.5386 50.8679 29.1091C50.5434 30.0717 50.0517 30.9291 49.1285 32.087C46.5538 35.3159 52.9007 30.4705 54.2466 36.0651C54.3669 36.5646 54.257 39.3516 54.2461 39.7632L54.2049 41.5839C54.2049 41.5839 54.0259 44.2103 53.5865 46.2101C53.3006 47.5106 52.5271 49.7486 52.0199 50.8728C51.3753 52.3011 50.6862 53.57 49.2698 55.5623C47.8572 57.5492 45.5258 60.3391 43.6563 61.6349C39.9122 64.23 36.126 66.714 27.6106 67.0811" fill="#FBFAF8"/>
<path d="M27.6106 0.918457C28.276 2.94848 33.5025 5.33274 36.9557 6.61116C39.2937 7.47679 41.5255 8.4512 41.5255 8.4512C41.5255 8.4512 44.8987 9.81304 47.8501 12.4053C50.2221 14.4885 52.001 18.4862 51.777 22.8301C51.5966 26.3281 51.3972 27.5386 50.8679 29.1091C50.5434 30.0717 50.0517 30.9291 49.1285 32.087C46.5538 35.3159 52.9007 30.4705 54.2466 36.0651C54.3669 36.5646 54.257 39.3516 54.2461 39.7632L54.2049 41.5839C54.2049 41.5839 54.0259 44.2103 53.5865 46.2101C53.3006 47.5105 52.5271 49.7486 52.0199 50.8728C51.3753 52.3011 50.6862 53.57 49.2698 55.5623C47.8572 57.5492 45.5258 60.3391 43.6563 61.6349C39.9122 64.23 36.126 66.714 27.6106 67.0811" stroke="#37786D" stroke-width="1.08494" stroke-miterlimit="10" stroke-linecap="round"/>
<path d="M27.6102 0.918457C26.945 2.94848 21.7184 5.33274 18.2652 6.61116C15.9272 7.47679 13.6954 8.4512 13.6954 8.4512C13.6954 8.4512 10.3222 9.81304 7.37071 12.4053C4.99883 14.4885 3.21992 18.4862 3.44395 22.8301C3.62425 26.3281 3.82366 27.5386 4.35306 29.1091C4.67741 30.0717 5.16921 30.9291 6.09241 32.087C8.66714 35.3159 2.32023 30.4705 0.974198 36.0651C0.854036 36.5646 0.963907 39.3516 0.974809 39.7632L1.01597 41.5839C1.01597 41.5839 1.19492 44.2103 1.63441 46.2101C1.92018 47.5106 2.69382 49.7486 3.20105 50.8728C3.84547 52.3011 4.53472 53.57 5.95106 55.5623C7.36373 57.5492 9.69519 60.3391 11.5646 61.6349C15.3086 64.23 19.0949 66.714 27.6102 67.0811" fill="#FBFAF8"/>
<path d="M27.6102 0.918457C26.945 2.94848 21.7184 5.33274 18.2651 6.61116C15.9272 7.47679 13.6954 8.4512 13.6954 8.4512C13.6954 8.4512 10.3222 9.81304 7.37071 12.4053C4.99883 14.4885 3.21992 18.4862 3.44395 22.8301C3.62425 26.3281 3.82366 27.5386 4.35306 29.1091C4.67741 30.0717 5.16921 30.9291 6.09241 32.087C8.66714 35.3159 2.32023 30.4705 0.974198 36.0651C0.854036 36.5646 0.963907 39.3516 0.974809 39.7632L1.01597 41.5839C1.01597 41.5839 1.19492 44.2103 1.63441 46.2101C1.92018 47.5105 2.69382 49.7486 3.20105 50.8728C3.84547 52.3011 4.53472 53.57 5.95106 55.5623C7.36373 57.5492 9.69519 60.3391 11.5646 61.6349C15.3086 64.23 19.0949 66.714 27.6102 67.0811" stroke="#37786D" stroke-width="1.08494" stroke-miterlimit="10" stroke-linecap="round"/>
<path d="M21.2786 53.2175C21.2786 53.2175 22.8605 56.7705 25.7635 59.3909C28.6566 62.0022 32.4622 63.1725 35.9075 62.9035C37.2617 62.7978 37.563 62.7938 38.4748 62.6904C42.4717 62.2368 44.6444 60.8171 44.6444 60.8171" stroke="#3A786D" stroke-width="1.08494" stroke-miterlimit="10" stroke-linecap="round" stroke-linejoin="round"/>
<path d="M21.6501 49.6952C21.6501 49.6952 21.6797 47.3076 22.2741 44.7633C22.8044 42.4937 23.8289 40.1578 24.9801 38.3598C27.4221 34.5461 32.307 30.7314 33.8974 29.6307C35.36 28.6185 35.9322 28.3383 37.2708 27.6455C38.8456 26.8303 40.4921 26.1457 41.3478 25.8046C42.1341 25.4909 42.5123 25.3486 43.4732 24.999C44.7111 24.5486 45.7946 24.2286 45.7736 24.3762C45.7401 24.6101 45.1182 29.4768 44.0343 32.6485C42.9504 35.82 41.9585 38.7902 39.4872 42.3084C37.0159 45.8265 36.4348 46.4598 34.0208 48.1572C32.6222 49.1407 30.9728 49.9497 29.8324 50.4564C29.0044 50.8243 28.1242 51.0324 28.1242 51.0324C28.1242 51.0324 23.3328 52.1813 22.7838 51.7529C22.2347 51.3244 25.358 47.1082 25.6552 46.7071C25.9523 46.3059 27.78 44.1303 28.2184 43.6658C28.6569 43.2012 31.0947 41.05 31.7938 40.5144C32.493 39.9787 32.4477 39.5681 32.3646 39.3826C32.2816 39.197 32.0326 38.9684 31.4474 39.1299C30.8622 39.2914 29.632 40.1716 28.9912 40.7723C27.9849 41.7157 27.6106 41.9769 25.3328 44.6011C23.3248 46.9146 21.6501 49.6952 21.6501 49.6952Z" fill="#3A786D" stroke="#3A786D" stroke-width="0.072329" stroke-miterlimit="10" stroke-linejoin="round"/>
<path d="M19.6916 47.7073C19.6916 47.7073 19.6899 50.7923 19.722 51.1932C19.7423 51.4474 17.9391 50.7957 16.4834 49.5155C15.4649 48.6198 14.7515 47.8022 14.433 47.4328C13.8696 46.779 12.5038 44.4891 12.1237 43.5149C11.9437 43.0536 11.5892 42.2106 11.2292 40.9311C10.8289 39.5089 10.6432 37.6503 10.7397 37.4161C10.923 36.9714 15.4124 39.1674 15.952 39.5639C16.4916 39.9603 18.7427 41.5483 19.3305 42.1493C19.9182 42.7502 20.5161 43.3128 20.6661 43.5452C20.8162 43.7776 20.1039 45.9645 20.1039 45.9645C20.1039 45.9645 18.7288 44.9453 18.5373 44.8476C18.3458 44.75 17.666 44.2667 17.2908 44.7943C16.9157 45.3222 17.3237 45.715 17.581 46.0365C17.8382 46.3582 19.6916 47.7073 19.6916 47.7073Z" fill="#3A786D" stroke="#3A786D" stroke-width="0.072329" stroke-miterlimit="10" stroke-linejoin="round"/>
</g>
</svg>
